HIERARCHY
ROOT Hips
{
	OFFSET -19.934631 -33.524395 87.965111
	CHANNELS 6 Xposition Yposition Zposition Zrotation Yrotation Xrotation
	JOINT Spine
	{
		OFFSET 0.000000 2.080107 8.814247
		CHANNELS 6 Xposition Yposition Zposition Zrotation Yrotation Xrotation
		JOINT Spine1
		{
			OFFSET 0.000000 0.000000 8.844139
			CHANNELS 6 Xposition Yposition Zposition Zrotation Yrotation Xrotation
			JOINT Spine2
			{
				OFFSET 0.000000 0.000002 11.682266
				CHANNELS 6 Xposition Yposition Zposition Zrotation Yrotation Xrotation
				JOINT Spine3
				{
					OFFSET 0.000000 0.000000 11.746696
					CHANNELS 6 Xposition Yposition Zposition Zrotation Yrotation Xrotation
					JOINT Neck
					{
						OFFSET 0.000000 0.000002 17.658264
						CHANNELS 6 Xposition Yposition Zposition Zrotation Yrotation Xrotation
						JOINT Neck1
						{
							OFFSET 0.000000 0.000000 5.101517
							CHANNELS 6 Xposition Yposition Zposition Zrotation Yrotation Xrotation
							JOINT Head
							{
								OFFSET 0.000000 0.000000 5.101517
								CHANNELS 6 Xposition Yposition Zposition Zrotation Yrotation Xrotation
								JOINT HeadEnd
								{
									OFFSET 0.000000 0.000002 11.655090
									CHANNELS 6 Xposition Yposition Zposition Zrotation Yrotation Xrotation
									End Site
									{
										OFFSET 0.000000 0.000000 0.100006
									}
								}
							}
						}
					}
					JOINT RightShoulder
					{
						OFFSET -2.625389 0.000002 11.175217
						CHANNELS 6 Xposition Yposition Zposition Zrotation Yrotation Xrotation
						JOINT RightArm
						{
							OFFSET 0.000000 0.000000 10.434708
							CHANNELS 6 Xposition Yposition Zposition Zrotation Yrotation Xrotation
							JOINT RightForeArm
							{
								OFFSET 0.000000 0.000002 29.628418
								CHANNELS 6 Xposition Yposition Zposition Zrotation Yrotation Xrotation
								JOINT RightHand
								{
									OFFSET 0.000000 0.000002 22.857605
									CHANNELS 6 Xposition Yposition Zposition Zrotation Yrotation Xrotation
									JOINT RightHandThumb1
									{
										OFFSET -2.867323 -2.944292 3.959564
										CHANNELS 6 Xposition Yposition Zposition Zrotation Yrotation Xrotation
										JOINT RightHandThumb2
										{
											OFFSET 0.000000 0.000000 3.350403
											CHANNELS 6 Xposition Yposition Zposition Zrotation Yrotation Xrotation
											JOINT RightHandThumb3
											{
												OFFSET 0.000000 0.000000 3.756516
												CHANNELS 6 Xposition Yposition Zposition Zrotation Yrotation Xrotation
												JOINT RightHandThumb4
												{
													OFFSET 0.000000 0.000000 3.147339
													CHANNELS 6 Xposition Yposition Zposition Zrotation Yrotation Xrotation
													End Site
													{
														OFFSET 0.000000 0.000000 0.100006
													}
												}
											}
										}
									}
									JOINT RightHandIndex1
									{
										OFFSET -0.086752 -2.345282 10.030899
										CHANNELS 6 Xposition Yposition Zposition Zrotation Yrotation Xrotation
										JOINT RightHandIndex2
										{
											OFFSET 0.000000 0.000000 4.061096
											CHANNELS 6 Xposition Yposition Zposition Zrotation Yrotation Xrotation
											JOINT RightHandIndex3
											{
												OFFSET 0.000000 0.000000 3.248871
												CHANNELS 6 Xposition Yposition Zposition Zrotation Yrotation Xrotation
												JOINT RightHandIndex4
												{
													OFFSET 0.000000 0.000000 2.639709
													CHANNELS 6 Xposition Yposition Zposition Zrotation Yrotation Xrotation
													End Site
													{
														OFFSET 0.000000 0.000000 0.100006
													}
												}
											}
										}
									}
									JOINT RightHandMiddle1
									{
										OFFSET 0.104101 -0.006767 9.502945
										CHANNELS 6 Xposition Yposition Zposition Zrotation Yrotation Xrotation
										JOINT RightHandMiddle2
										{
											OFFSET 0.000000 0.000002 4.568726
											CHANNELS 6 Xposition Yposition Zposition Zrotation Yrotation Xrotation
											JOINT RightHandMiddle3
											{
												OFFSET 0.000000 0.000000 3.654984
												CHANNELS 6 Xposition Yposition Zposition Zrotation Yrotation Xrotation
												JOINT RightHandMiddle4
												{
													OFFSET 0.000000 0.000000 2.741241
													CHANNELS 6 Xposition Yposition Zposition Zrotation Yrotation Xrotation
													End Site
													{
														OFFSET 0.000000 0.000000 0.100006
													}
												}
											}
										}
									}
									JOINT RightHandRing1
									{
										OFFSET 0.086752 2.267443 8.921707
										CHANNELS 6 Xposition Yposition Zposition Zrotation Yrotation Xrotation
										JOINT RightHandRing2
										{
											OFFSET 0.000000 0.000002 4.061096
											CHANNELS 6 Xposition Yposition Zposition Zrotation Yrotation Xrotation
											JOINT RightHandRing3
											{
												OFFSET 0.000000 0.000000 3.654984
												CHANNELS 6 Xposition Yposition Zposition Zrotation Yrotation Xrotation
												JOINT RightHandRing4
												{
													OFFSET 0.000000 0.000000 2.741241
													CHANNELS 6 Xposition Yposition Zposition Zrotation Yrotation Xrotation
													End Site
													{
														OFFSET 0.000000 0.000000 0.100006
													}
												}
											}
										}
									}
									JOINT RightHandPinky1
									{
										OFFSET -0.173504 4.467199 7.976990
										CHANNELS 6 Xposition Yposition Zposition Zrotation Yrotation Xrotation
										JOINT RightHandPinky2
										{
											OFFSET 0.000000 0.000000 3.350403
											CHANNELS 6 Xposition Yposition Zposition Zrotation Yrotation Xrotation
											JOINT RightHandPinky3
											{
												OFFSET 0.000000 0.000002 2.842758
												CHANNELS 6 Xposition Yposition Zposition Zrotation Yrotation Xrotation
												JOINT RightHandPinky4
												{
													OFFSET 0.000000 0.000000 2.639709
													CHANNELS 6 Xposition Yposition Zposition Zrotation Yrotation Xrotation
													End Site
													{
														OFFSET 0.000000 0.000000 0.100006
													}
												}
											}
										}
									}
									JOINT RightForeArmEnd
									{
										OFFSET 0.000000 0.000000 0.000000
										CHANNELS 6 Xposition Yposition Zposition Zrotation Yrotation Xrotation
										End Site
										{
											OFFSET 0.000000 0.000000 0.100006
										}
									}
								}
								JOINT RightArmEnd
								{
									OFFSET 0.000000 0.000000 0.000000
									CHANNELS 6 Xposition Yposition Zposition Zrotation Yrotation Xrotation
									End Site
									{
										OFFSET 0.000000 0.000000 0.100006
									}
								}
							}
						}
					}
					JOINT LeftShoulder
					{
						OFFSET 2.625389 0.000002 11.175217
						CHANNELS 6 Xposition Yposition Zposition Zrotation Yrotation Xrotation
						JOINT LeftArm
						{
							OFFSET 0.000000 0.000000 10.813629
							CHANNELS 6 Xposition Yposition Zposition Zrotation Yrotation Xrotation
							JOINT LeftForeArm
							{
								OFFSET 0.000000 0.000002 28.724777
								CHANNELS 6 Xposition Yposition Zposition Zrotation Yrotation Xrotation
								JOINT LeftHand
								{
									OFFSET 0.644384 0.328873 25.716171
									CHANNELS 6 Xposition Yposition Zposition Zrotation Yrotation Xrotation
									JOINT LeftHandThumb1
									{
										OFFSET 2.867323 -2.944290 3.959564
										CHANNELS 6 Xposition Yposition Zposition Zrotation Yrotation Xrotation
										JOINT LeftHandThumb2
										{
											OFFSET 0.000000 0.000000 3.350403
											CHANNELS 6 Xposition Yposition Zposition Zrotation Yrotation Xrotation
											JOINT LeftHandThumb3
											{
												OFFSET 0.000000 0.000000 3.756516
												CHANNELS 6 Xposition Yposition Zposition Zrotation Yrotation Xrotation
												JOINT LeftHandThumb4
												{
													OFFSET 0.000000 0.000000 3.100006
													CHANNELS 6 Xposition Yposition Zposition Zrotation Yrotation Xrotation
													End Site
													{
														OFFSET 0.000000 0.000000 0.100006
													}
												}
											}
										}
									}
									JOINT LeftHandIndex1
									{
										OFFSET 0.086752 -2.345280 10.030899
										CHANNELS 6 Xposition Yposition Zposition Zrotation Yrotation Xrotation
										JOINT LeftHandIndex2
										{
											OFFSET 0.000000 0.000000 4.061096
											CHANNELS 6 Xposition Yposition Zposition Zrotation Yrotation Xrotation
											JOINT LeftHandIndex3
											{
												OFFSET 0.000000 0.000000 3.248871
												CHANNELS 6 Xposition Yposition Zposition Zrotation Yrotation Xrotation
												JOINT LeftHandIndex4
												{
													OFFSET 0.000000 0.000000 2.639709
													CHANNELS 6 Xposition Yposition Zposition Zrotation Yrotation Xrotation
													End Site
													{
														OFFSET 0.000000 0.000000 0.100006
													}
												}
											}
										}
									}
									JOINT LeftHandMiddle1
									{
										OFFSET -0.104101 -0.006765 9.502945
										CHANNELS 6 Xposition Yposition Zposition Zrotation Yrotation Xrotation
										JOINT LeftHandMiddle2
										{
											OFFSET 0.000000 0.000000 4.568726
											CHANNELS 6 Xposition Yposition Zposition Zrotation Yrotation Xrotation
											JOINT LeftHandMiddle3
											{
												OFFSET 0.000000 0.000000 3.654984
												CHANNELS 6 Xposition Yposition Zposition Zrotation Yrotation Xrotation
												JOINT LeftHandMiddle4
												{
													OFFSET 0.000000 0.000000 2.741241
													CHANNELS 6 Xposition Yposition Zposition Zrotation Yrotation Xrotation
													End Site
													{
														OFFSET 0.000000 0.000000 0.100006
													}
												}
											}
										}
									}
									JOINT LeftHandRing1
									{
										OFFSET -0.086752 2.267443 8.921707
										CHANNELS 6 Xposition Yposition Zposition Zrotation Yrotation Xrotation
										JOINT LeftHandRing2
										{
											OFFSET 0.000000 0.000002 4.061096
											CHANNELS 6 Xposition Yposition Zposition Zrotation Yrotation Xrotation
											JOINT LeftHandRing3
											{
												OFFSET 0.000000 0.000000 3.654984
												CHANNELS 6 Xposition Yposition Zposition Zrotation Yrotation Xrotation
												JOINT LeftHandRing4
												{
													OFFSET 0.000000 0.000000 2.741241
													CHANNELS 6 Xposition Yposition Zposition Zrotation Yrotation Xrotation
													End Site
													{
														OFFSET 0.000000 0.000000 0.100006
													}
												}
											}
										}
									}
									JOINT LeftHandPinky1
									{
										OFFSET 0.173504 4.467199 7.976990
										CHANNELS 6 Xposition Yposition Zposition Zrotation Yrotation Xrotation
										JOINT LeftHandPinky2
										{
											OFFSET 0.000000 0.000002 3.350403
											CHANNELS 6 Xposition Yposition Zposition Zrotation Yrotation Xrotation
											JOINT LeftHandPinky3
											{
												OFFSET 0.000000 0.000000 2.842758
												CHANNELS 6 Xposition Yposition Zposition Zrotation Yrotation Xrotation
												JOINT LeftHandPinky4
												{
													OFFSET 0.000000 0.000000 2.639709
													CHANNELS 6 Xposition Yposition Zposition Zrotation Yrotation Xrotation
													End Site
													{
														OFFSET 0.000000 0.000000 0.100006
													}
												}
											}
										}
									}
									JOINT LeftForeArmEnd
									{
										OFFSET 0.000000 0.000000 0.000000
										CHANNELS 6 Xposition Yposition Zposition Zrotation Yrotation Xrotation
										End Site
										{
											OFFSET 0.000000 0.000000 0.100006
										}
									}
								}
								JOINT LeftArmEnd
								{
									OFFSET 0.000000 0.000000 0.000000
									CHANNELS 6 Xposition Yposition Zposition Zrotation Yrotation Xrotation
									End Site
									{
										OFFSET 0.000000 0.000000 0.100006
									}
								}
							}
						}
					}
				}
			}
		}
	}
	JOINT RightUpLeg
	{
		OFFSET -11.289944 0.000000 0.000000
		CHANNELS 6 Xposition Yposition Zposition Zrotation Yrotation Xrotation
		JOINT RightLeg
		{
			OFFSET 0.000000 -0.000004 -38.200321
			CHANNELS 6 Xposition Yposition Zposition Zrotation Yrotation Xrotation
			JOINT RightFoot
			{
				OFFSET 0.000000 -0.000004 -39.900856
				CHANNELS 6 Xposition Yposition Zposition Zrotation Yrotation Xrotation
				JOINT RightToeBase
				{
					OFFSET 0.000000 -15.261639 0.000001
					CHANNELS 6 Xposition Yposition Zposition Zrotation Yrotation Xrotation
					JOINT RightToeBaseEnd
					{
						OFFSET 0.000000 -7.370708 0.000000
						CHANNELS 6 Xposition Yposition Zposition Zrotation Yrotation Xrotation
						End Site
						{
							OFFSET 0.000000 0.000000 0.100000
						}
					}
				}
				JOINT RightLegEnd
				{
					OFFSET 0.000000 0.000000 0.000000
					CHANNELS 6 Xposition Yposition Zposition Zrotation Yrotation Xrotation
					End Site
					{
						OFFSET 0.000000 0.000000 0.100000
					}
				}
			}
			JOINT RightUpLegEnd
			{
				OFFSET 0.000000 0.000000 0.000000
				CHANNELS 6 Xposition Yposition Zposition Zrotation Yrotation Xrotation
				End Site
				{
					OFFSET 0.000000 0.000000 0.099998
				}
			}
		}
	}
	JOINT LeftUpLeg
	{
		OFFSET 11.315661 0.000000 0.000000
		CHANNELS 6 Xposition Yposition Zposition Zrotation Yrotation Xrotation
		JOINT LeftLeg
		{
			OFFSET 0.000000 -0.000004 -38.200321
			CHANNELS 6 Xposition Yposition Zposition Zrotation Yrotation Xrotation
			JOINT LeftFoot
			{
				OFFSET 0.000000 -0.000004 -39.900856
				CHANNELS 6 Xposition Yposition Zposition Zrotation Yrotation Xrotation
				JOINT LeftToeBase
				{
					OFFSET 0.000000 -15.261639 0.000001
					CHANNELS 6 Xposition Yposition Zposition Zrotation Yrotation Xrotation
					JOINT LeftToeBaseEnd
					{
						OFFSET 0.000000 -7.539997 0.000000
						CHANNELS 6 Xposition Yposition Zposition Zrotation Yrotation Xrotation
						End Site
						{
							OFFSET 0.000000 0.000000 0.100000
						}
					}
				}
				JOINT LeftLegEnd
				{
					OFFSET 0.000000 0.000000 0.000000
					CHANNELS 6 Xposition Yposition Zposition Zrotation Yrotation Xrotation
					End Site
					{
						OFFSET 0.000000 0.000000 0.100000
					}
				}
			}
			JOINT LeftUpLegEnd
			{
				OFFSET 0.000000 0.000000 0.000000
				CHANNELS 6 Xposition Yposition Zposition Zrotation Yrotation Xrotation
				End Site
				{
					OFFSET 0.000000 0.000000 0.099998
				}
			}
		}
	}
}
MOTION
Frames: 2
Frame Time: 0.016667
-12.659307 -8.919769 84.488281 -8.389233 10.769397 -14.281696 0.000002 2.080114 8.814249 -0.861590 -4.074023 5.075132 -0.000002 -0.000000 8.844150 0.210006 0.086502 2.544400 0.000003 0.000005 11.682266 -6.503922 -6.417743 9.669693 -0.000000 -0.000003 11.746695 -2.120930 -2.441251 3.087895 -0.000002 -0.000002 17.658260 -7.831667 -29.329310 24.857297 -0.000010 0.000005 5.101503 4.059377 1.004200 -0.724051 -0.000012 -0.000008 5.101501 3.304307 1.282084 -27.228897 -0.000001 0.000002 11.655088 -0.000002 -0.000004 0.000000 -2.625390 0.000002 11.175216 2.139322 -87.296607 -0.512712 -0.000019 -0.000004 10.434714 65.487068 -37.490905 21.629261 0.000004 0.000005 29.628408 24.944168 -0.364835 140.668661 -0.000005 0.000010 22.857620 22.426600 18.188032 -12.642417 -2.867315 -2.944271 3.959571 31.560480 -21.436113 45.448427 0.000001 -0.000005 3.350412 -21.982865 10.812350 -38.044434 0.000001 -0.000008 3.756513 -14.504610 9.107035 -25.920546 0.000001 0.000004 3.147355 -0.000001 -0.000000 -0.000002 -0.086770 -2.345276 10.030885 -23.317882 -45.769432 20.082850 0.000003 0.000021 4.061105 -1.160873 -33.971226 5.433662 -0.000001 0.000022 3.248873 -1.660853 -33.971158 5.433656 0.000001 -0.000005 2.639708 0.000002 0.000001 0.000004 0.104079 -0.006767 9.502941 -16.517315 -47.561862 13.538993 0.000023 0.000011 4.568722 -0.138178 -34.434730 2.059145 0.000002 -0.000013 3.655006 -0.638151 -34.434610 2.059134 0.000012 -0.000014 2.741226 -0.000003 0.000001 0.000000 0.086731 2.267445 8.921707 -5.271709 -50.969122 3.574153 -0.000013 0.000008 4.061080 -0.171674 -36.012186 -2.548044 0.000004 -0.000008 3.654990 0.828421 -36.012145 -2.548142 -0.000003 0.000003 2.741226 0.000000 -0.000001 -0.000000 -0.173500 4.467201 7.976970 8.151497 -50.029524 -7.903910 0.000003 -0.000007 3.350389 0.474435 -35.026829 -7.830466 -0.000008 0.000005 2.842762 2.474419 -35.026853 -7.830463 0.000006 -0.000019 2.639725 -0.000001 0.000000 -0.000001 0.000001 0.000004 -0.000015 -0.000000 0.000001 -0.000000 0.000001 0.000006 -0.000001 -0.000003 0.000002 0.000003 2.625398 0.000004 11.175221 -7.442919 93.906857 -0.592734 0.000007 -0.000003 10.813635 64.012540 35.403732 54.347675 0.000003 -0.000021 28.724800 -6.660877 0.219661 48.370768 0.644389 0.328870 25.716190 -22.016953 1.639829 -14.892165 2.867328 -2.944283 3.959567 -31.863584 15.721152 53.915813 0.000003 -0.000004 3.350407 9.281681 -6.858904 -17.127227 -0.000001 -0.000003 3.756534 6.223557 -5.062957 -11.762676 -0.000001 -0.000006 3.099973 0.000000 -0.000001 0.000004 0.086748 -2.345282 10.030901 -6.889319 8.953996 -5.433350 -0.000002 -0.000004 4.061104 0.520286 6.798011 -0.928641 -0.000002 0.000004 3.248866 -0.069552 6.798297 -0.917452 0.000001 -0.000000 2.639710 0.000001 -0.000002 -0.000001 -0.104104 -0.006761 9.502952 -1.760612 9.815254 -5.117831 0.000003 0.000000 4.568727 0.487803 7.173367 -0.368110 0.000003 0.000001 3.655021 -0.030832 7.173492 -0.374056 0.000003 -0.000000 2.741241 0.000003 -0.000000 0.000000 -0.086754 2.267443 8.921730 6.591872 11.415036 -1.609197 0.000001 0.000000 4.061121 -0.958564 7.983278 0.483800 -0.000002 0.000001 3.654979 0.037252 7.983119 0.479820 0.000003 -0.000005 2.741242 0.000001 0.000000 -0.000001 0.173497 4.467198 7.977004 15.295725 11.371935 1.386798 0.000002 -0.000002 3.350427 -1.884715 7.946605 1.554552 0.000001 -0.000001 2.842762 0.100337 7.945790 1.550344 0.000005 0.000002 2.639709 0.000000 -0.000002 -0.000001 -0.000003 -0.000002 0.000016 0.000004 0.000000 -0.000000 -0.000002 -0.000002 0.000031 0.000001 0.000002 -0.000001 -11.289946 -0.000008 0.000020 -5.785653 -17.018485 15.080354 -0.000001 -0.000016 -38.200329 -0.166838 0.033958 12.467628 -0.000001 -0.000004 -39.900856 -20.643750 9.686507 12.117853 0.000002 -15.261643 0.000003 -0.811258 -0.823985 -28.480374 0.000002 -7.370711 -0.000000 -0.000002 -0.000000 0.000000 0.000002 -0.000003 -0.000000 -0.000002 0.000001 0.000004 0.000002 0.000000 0.000007 0.000000 -0.000000 0.000000 11.315650 -0.000007 0.000020 13.527599 -28.262344 -9.327176 -0.000001 -0.000013 -38.200321 0.306930 -0.209486 34.329074 -0.000004 -0.000003 -39.900864 14.644998 10.800309 16.715660 0.000003 -15.261647 0.000004 2.177459 -1.383468 -26.098721 -0.000000 -7.539994 0.000000 0.000004 0.000000 -0.000000 0.000001 -0.000004 -0.000002 -0.000001 0.000001 0.000001 -0.000002 -0.000004 0.000003 -0.000000 -0.000001 0.000001 
-12.687685 -8.933495 84.484772 -8.353018 10.752348 -14.293244 0.000002 2.080109 8.814245 -0.861393 -4.067659 5.073735 0.000000 0.000002 8.844141 0.208801 0.084469 2.532731 0.000000 0.000000 11.682253 -6.517107 -6.433927 9.684611 0.000001 0.000002 11.746699 -2.120628 -2.436949 3.085842 0.000010 0.000003 17.658260 -7.830150 -29.297369 24.805922 0.000011 0.000009 5.101542 4.043114 1.004086 -0.745330 0.000002 -0.000012 5.101511 3.311831 1.273688 -27.241748 0.000000 0.000001 11.655090 -0.000002 0.000001 0.000000 -2.625391 -0.000001 11.175199 2.159116 -87.305855 -0.517271 -0.000009 -0.000006 10.434709 65.441347 -37.466723 21.560202 0.000001 0.000004 29.628433 24.971190 -0.364954 140.616929 -0.000003 0.000006 22.857609 23.351648 17.368223 -12.320962 -2.867325 -2.944262 3.959572 31.546369 -21.249654 45.709525 0.000010 0.000005 3.350400 -21.565856 10.759957 -37.376588 0.000010 -0.000011 3.756512 -14.230510 9.012203 -25.467812 0.000004 0.000005 3.147353 -0.000002 -0.000000 0.000002 -0.086746 -2.345279 10.030900 -22.424155 -44.304627 19.586657 -0.000003 0.000004 4.061101 -1.040808 -32.896155 5.215765 -0.000003 -0.000019 3.248869 -1.540820 -32.896138 5.215757 -0.000001 0.000023 2.639709 0.000001 0.000003 0.000004 0.104105 -0.006761 9.502935 -15.701488 -45.898557 12.816511 0.000005 0.000008 4.568731 -0.086190 -33.205624 1.965757 -0.000014 0.000002 3.654980 -0.586168 -33.205562 1.965754 0.000003 -0.000012 2.741257 0.000000 0.000001 -0.000000 0.086726 2.267452 8.921722 -4.617945 -48.588900 2.542933 -0.000001 0.000000 4.061103 -0.259002 -34.358888 -2.396493 -0.000008 -0.000010 3.654986 0.740998 -34.358908 -2.396494 -0.000001 -0.000013 2.741227 -0.000002 -0.000001 -0.000003 -0.173512 4.467202 7.976997 8.123197 -46.878788 -8.738355 -0.000018 0.000008 3.350401 0.160493 -33.064246 -7.269811 0.000004 0.000006 2.842800 2.160503 -33.064167 -7.269813 0.000001 0.000003 2.639740 -0.000002 0.000001 0.000001 -0.000000 0.000007 -0.000017 -0.000000 -0.000001 0.000002 0.000002 0.000001 0.000013 -0.000001 -0.000000 0.000003 2.625379 -0.000000 11.175199 -7.435404 93.918345 -0.589939 -0.000007 0.000001 10.813635 64.004507 35.412731 54.337911 -0.000004 0.000005 28.724800 -6.635032 0.221261 48.372199 0.644393 0.328875 25.716181 -22.020641 1.632230 -14.883298 2.867318 -2.944291 3.959579 -31.863591 15.721154 53.915819 -0.000005 -0.000013 3.350401 9.281684 -6.858905 -17.127241 -0.000003 0.000013 3.756546 6.223556 -5.062956 -11.762668 -0.000000 -0.000002 3.100006 0.000000 -0.000001 -0.000000 0.086757 -2.345283 10.030904 -6.888182 8.955411 -5.453662 0.000000 0.000003 4.061103 0.520433 6.800550 -0.929229 0.000002 0.000001 3.248875 -0.069671 6.800966 -0.916387 0.000001 0.000000 2.639709 0.000003 -0.000001 -0.000000 -0.104097 -0.006763 9.502980 -1.760332 9.815936 -5.134071 0.000005 0.000000 4.568715 0.487790 7.174613 -0.366822 0.000003 0.000000 3.654970 -0.030823 7.174750 -0.372860 0.000005 0.000004 2.741257 0.000000 -0.000001 -0.000000 -0.086750 2.267445 8.921741 6.592014 11.415487 -1.621517 0.000000 0.000003 4.061132 -0.958383 7.982650 0.483717 -0.000001 -0.000003 3.654972 0.037330 7.982382 0.479220 0.000000 0.000001 2.741257 0.000003 0.000001 -0.000001 0.173506 4.467200 7.977008 15.294692 11.368682 1.375990 0.000001 -0.000001 3.350426 -1.884769 7.943011 1.553806 0.000001 -0.000006 2.842755 0.099796 7.942987 1.549407 -0.000000 -0.000005 2.639695 -0.000000 -0.000000 -0.000001 -0.000000 0.000003 0.000001 -0.000002 0.000000 -0.000001 -0.000000 0.000003 0.000001 0.000001 -0.000003 -0.000004 -11.289949 -0.000010 0.000007 -5.806085 -17.018233 15.104840 0.000000 -0.000006 -38.200321 -0.166795 0.033808 12.480453 0.000000 0.000001 -39.900860 -20.669978 9.694233 12.088090 -0.000001 -15.261641 0.000005 -0.812771 -0.823810 -28.473997 0.000001 -7.370709 0.000001 0.000001 0.000000 -0.000000 -0.000001 -0.000003 0.000001 -0.000002 -0.000000 0.000001 0.000002 -0.000004 0.000000 0.000000 0.000000 -0.000000 11.315655 -0.000010 -0.000000 13.507123 -28.264771 -9.292772 -0.000001 -0.000011 -38.200317 0.306132 -0.208593 34.297122 -0.000002 -0.000003 -39.900856 14.622479 10.809998 16.733163 -0.000000 -15.261642 0.000004 2.178400 -1.384818 -26.098902 -0.000000 -7.539997 0.000000 0.000001 -0.000001 -0.000000 -0.000001 -0.000004 0.000000 0.000001 0.000000 0.000001 -0.000001 -0.000004 0.000003 0.000001 -0.000001 0.000001 
